<svg width="296" height="43" viewBox="0 0 296 43" fill="none" xmlns="http://www.w3.org/2000/svg">
    <path d="M61.17 11.118V22.448C61.17 23.0787 61.2947 23.5113 61.544 23.746C61.808 23.966 62.314 24.0833 63.062 24.098V25H56.704V24.098C57.364 24.0833 57.7967 23.9733 58.002 23.768C58.222 23.548 58.332 23.1227 58.332 22.492V12.328C58.332 11.6973 58.222 11.272 58.002 11.052C57.7967 10.832 57.364 10.7147 56.704 10.7V9.776H67.308L67.616 13.604H66.274C66.0393 12.6067 65.768 11.9467 65.46 11.624C65.152 11.2867 64.5947 11.118 63.788 11.118H61.17ZM76.6779 22.558V19.72C76.6779 18.5467 76.7439 17.564 76.8759 16.772H76.7659C76.5166 17.5053 76.1866 18.18 75.7759 18.796L72.6079 23.57C72.4026 23.8633 72.2999 24.34 72.2999 25H68.1419V24.12C68.7286 24.0907 69.1099 23.9807 69.2859 23.79C69.4766 23.5993 69.5719 23.1887 69.5719 22.558V16.464C69.5719 15.8187 69.4766 15.4007 69.2859 15.21C69.1099 15.0193 68.7286 14.9093 68.1419 14.88V13.978H73.5319V14.88C72.9893 14.9093 72.6299 15.0193 72.4539 15.21C72.2926 15.4007 72.2119 15.8187 72.2119 16.464V19.214C72.2119 20.4167 72.1459 21.414 72.0139 22.206H72.1239C72.3733 21.4727 72.7033 20.798 73.1139 20.182L76.2819 15.408C76.4873 15.1147 76.5899 14.638 76.5899 13.978H80.7479V14.88C80.1613 14.9093 79.7726 15.0193 79.5819 15.21C79.4059 15.4007 79.3179 15.8187 79.3179 16.464V22.558C79.3179 23.1887 79.4059 23.5993 79.5819 23.79C79.7726 23.9807 80.1613 24.0907 80.7479 24.12V25H75.3579V24.12C75.9006 24.0907 76.2526 23.9807 76.4139 23.79C76.5899 23.5993 76.6779 23.1887 76.6779 22.558ZM90.9759 16.464C90.9759 15.8187 90.8879 15.4007 90.7119 15.21C90.5505 15.0193 90.1985 14.9093 89.6559 14.88V13.978H95.0899V14.88C94.5032 14.9093 94.1145 15.0193 93.9239 15.21C93.7479 15.4007 93.6599 15.8187 93.6599 16.464V22.558C93.6599 23.1887 93.7479 23.5993 93.9239 23.79C94.1145 23.9807 94.5032 24.0907 95.0899 24.12V25H89.6559V24.12C90.1985 24.0907 90.5505 23.9807 90.7119 23.79C90.8879 23.5993 90.9759 23.1887 90.9759 22.558V19.962H86.5319V22.558C86.5319 23.1887 86.6125 23.5993 86.7739 23.79C86.9499 23.9807 87.3092 24.0907 87.8519 24.12V25H82.4179V24.12C83.0045 24.0907 83.3859 23.9807 83.5619 23.79C83.7525 23.5993 83.8479 23.1887 83.8479 22.558V16.464C83.8479 15.8187 83.7525 15.4007 83.5619 15.21C83.3859 15.0193 83.0045 14.9093 82.4179 14.88V13.978H87.8519V14.88C87.3092 14.9093 86.9499 15.0193 86.7739 15.21C86.6125 15.4007 86.5319 15.8187 86.5319 16.464V18.642H90.9759V16.464ZM103.028 23.614C104.011 23.614 104.986 23.3353 105.954 22.778L106.438 23.614C105.221 24.714 103.798 25.264 102.17 25.264C100.513 25.264 99.2223 24.758 98.2983 23.746C97.3889 22.7193 96.9343 21.282 96.9343 19.434C96.9343 17.6447 97.3963 16.2367 98.3203 15.21C99.2443 14.1833 100.462 13.67 101.972 13.67C103.527 13.67 104.693 14.132 105.47 15.056C106.248 15.98 106.636 17.3 106.636 19.016V19.786H99.7943C99.8236 21.1793 100.088 22.1693 100.586 22.756C101.1 23.328 101.914 23.614 103.028 23.614ZM101.972 14.902C101.298 14.902 100.784 15.166 100.432 15.694C100.095 16.222 99.8896 17.1533 99.8163 18.488H103.908C103.908 17.168 103.762 16.244 103.468 15.716C103.175 15.1733 102.676 14.902 101.972 14.902ZM119.414 15.672L118.402 15.804C117.947 15.8627 117.61 15.9873 117.39 16.178C117.185 16.3687 117.023 16.6693 116.906 17.08C116.715 17.74 116.503 18.2167 116.268 18.51C116.033 18.8033 115.659 19.038 115.146 19.214V19.302C115.967 19.3753 116.576 19.5953 116.972 19.962C117.368 20.3287 117.691 20.908 117.94 21.7C118.116 22.2867 118.321 22.7193 118.556 22.998C118.791 23.262 119.179 23.438 119.722 23.526L119.48 25.264C118.16 25.264 117.214 25.044 116.642 24.604C116.085 24.1493 115.659 23.4013 115.366 22.36C115.102 21.4507 114.831 20.8273 114.552 20.49C114.288 20.138 113.899 19.962 113.386 19.962H112.484V22.558C112.484 23.1887 112.565 23.5993 112.726 23.79C112.887 23.9807 113.247 24.0907 113.804 24.12V25H108.37V24.12C108.957 24.0907 109.338 23.9807 109.514 23.79C109.705 23.5993 109.8 23.1887 109.8 22.558V16.464C109.8 15.8187 109.705 15.4007 109.514 15.21C109.338 15.0193 108.957 14.9093 108.37 14.88V13.978H113.804V14.88C113.261 14.9093 112.902 15.0193 112.726 15.21C112.565 15.4007 112.484 15.8187 112.484 16.464V18.686H112.902C113.723 18.686 114.332 18.532 114.728 18.224C115.139 17.916 115.439 17.344 115.63 16.508C115.85 15.5107 116.217 14.8067 116.73 14.396C117.243 13.9707 118.072 13.736 119.216 13.692L119.414 15.672ZM131.902 19.434C131.902 21.2967 131.396 22.734 130.384 23.746C129.387 24.758 128.104 25.264 126.534 25.264C124.906 25.264 123.616 24.758 122.662 23.746C121.709 22.7193 121.232 21.304 121.232 19.5C121.232 17.7253 121.724 16.31 122.706 15.254C123.689 14.198 124.987 13.67 126.6 13.67C128.228 13.67 129.519 14.1833 130.472 15.21C131.426 16.2367 131.902 17.6447 131.902 19.434ZM128.976 19.434C128.976 17.8353 128.771 16.684 128.36 15.98C127.964 15.276 127.356 14.924 126.534 14.924C125.669 14.924 125.053 15.276 124.686 15.98C124.334 16.684 124.158 17.828 124.158 19.412C124.158 21.0547 124.342 22.2427 124.708 22.976C125.075 23.6947 125.713 24.054 126.622 24.054C128.192 24.054 128.976 22.514 128.976 19.434ZM133.632 25V24.12C134.219 24.0907 134.6 23.9807 134.776 23.79C134.952 23.5993 135.055 23.1887 135.084 22.558L135.414 16.662C135.429 16.4713 135.436 16.288 135.436 16.112C135.422 15.628 135.319 15.3127 135.128 15.166C134.938 15.0047 134.564 14.9093 134.006 14.88V13.978H138.252L140.21 19.522C140.65 20.754 140.878 21.568 140.892 21.964H141.024C141.054 21.4653 141.274 20.6587 141.684 19.544L143.73 13.978H148.042V14.88C147.485 14.9093 147.111 15.0047 146.92 15.166C146.73 15.3127 146.627 15.628 146.612 16.112C146.612 16.3907 146.62 16.6327 146.634 16.838L146.964 22.558C146.994 23.1887 147.096 23.5993 147.272 23.79C147.448 23.9807 147.83 24.0907 148.416 24.12V25H143.136V24.12C143.62 24.0907 143.943 24.0027 144.104 23.856C144.28 23.6947 144.368 23.3793 144.368 22.91C144.368 22.866 144.361 22.8 144.346 22.712C144.346 22.6093 144.339 22.4773 144.324 22.316C144.324 22.14 144.324 21.9713 144.324 21.81L144.148 18.708C144.104 18.048 144.082 17.4247 144.082 16.838H143.95C143.892 17.5713 143.723 18.334 143.444 19.126L141.398 25H139.616L137.658 19.676C137.321 18.7667 137.116 17.8207 137.042 16.838H136.91C136.91 16.9553 136.896 17.278 136.866 17.806C136.852 18.334 136.844 18.6493 136.844 18.752L136.668 21.876C136.639 22.5213 136.624 22.866 136.624 22.91C136.624 23.3793 136.705 23.6947 136.866 23.856C137.042 24.0027 137.372 24.0907 137.856 24.12V25H133.632ZM159.125 21.898C159.125 22.7193 159.213 23.2473 159.389 23.482C159.565 23.7167 159.976 23.8487 160.621 23.878V24.736C160.152 25 159.514 25.132 158.707 25.132C157.461 25.132 156.749 24.6187 156.573 23.592C156.339 24.0467 155.965 24.45 155.451 24.802C154.938 25.1393 154.3 25.308 153.537 25.308C152.481 25.308 151.631 25.0367 150.985 24.494C150.34 23.9513 150.017 23.1593 150.017 22.118C150.017 19.7127 151.873 18.51 155.583 18.51C156.009 18.51 156.317 18.5173 156.507 18.532V17.542C156.507 16.6327 156.375 15.98 156.111 15.584C155.862 15.1733 155.407 14.968 154.747 14.968C154.043 14.968 153.537 15.144 153.229 15.496C152.921 15.848 152.716 16.3393 152.613 16.97H150.677V14.858C152.085 14.066 153.567 13.67 155.121 13.67C156.412 13.67 157.417 13.978 158.135 14.594C158.854 15.1953 159.213 16.1193 159.213 17.366C159.213 17.4687 159.199 18.0553 159.169 19.126C159.14 20.1967 159.125 21.1207 159.125 21.898ZM156.463 19.676C156.405 19.676 156.273 19.676 156.067 19.676C155.877 19.6613 155.752 19.654 155.693 19.654C154.711 19.654 153.985 19.83 153.515 20.182C153.046 20.5193 152.811 21.062 152.811 21.81C152.811 22.4847 152.936 22.9613 153.185 23.24C153.449 23.504 153.853 23.636 154.395 23.636C155.217 23.636 155.884 23.24 156.397 22.448L156.463 19.676ZM171.013 14.594V16.816H169.011C168.923 16.1267 168.776 15.6427 168.571 15.364C168.38 15.0707 168.036 14.924 167.537 14.924C165.85 14.924 165.007 16.3467 165.007 19.192C165.007 20.82 165.264 21.9787 165.777 22.668C166.305 23.3573 167.053 23.702 168.021 23.702C168.578 23.702 169.048 23.6287 169.429 23.482C169.825 23.3353 170.272 23.0787 170.771 22.712L171.343 23.46C170.302 24.6627 168.967 25.264 167.339 25.264C165.843 25.264 164.611 24.7873 163.643 23.834C162.675 22.866 162.191 21.4727 162.191 19.654C162.191 17.7913 162.697 16.3393 163.709 15.298C164.721 14.242 165.997 13.714 167.537 13.714C169.018 13.714 170.177 14.0073 171.013 14.594ZM180.639 15.254H179.561V22.558C179.561 23.1887 179.656 23.5993 179.847 23.79C180.037 23.9807 180.433 24.0907 181.035 24.12V25H175.403V24.12C176.004 24.0907 176.4 23.9807 176.591 23.79C176.781 23.5993 176.877 23.1887 176.877 22.558V15.254H175.777C175.175 15.254 174.765 15.408 174.545 15.716C174.339 16.024 174.134 16.6473 173.929 17.586H172.631L172.829 13.978H183.587L183.785 17.586H182.509C182.303 16.6473 182.091 16.024 181.871 15.716C181.651 15.408 181.24 15.254 180.639 15.254ZM193.689 22.558V19.72C193.689 18.5467 193.755 17.564 193.887 16.772H193.777C193.527 17.5053 193.197 18.18 192.787 18.796L189.619 23.57C189.413 23.8633 189.311 24.34 189.311 25H185.153V24.12C185.739 24.0907 186.121 23.9807 186.297 23.79C186.487 23.5993 186.583 23.1887 186.583 22.558V16.464C186.583 15.8187 186.487 15.4007 186.297 15.21C186.121 15.0193 185.739 14.9093 185.153 14.88V13.978H190.543V14.88C190 14.9093 189.641 15.0193 189.465 15.21C189.303 15.4007 189.223 15.8187 189.223 16.464V19.214C189.223 20.4167 189.157 21.414 189.025 22.206H189.135C189.384 21.4727 189.714 20.798 190.125 20.182L193.293 15.408C193.498 15.1147 193.601 14.638 193.601 13.978H197.759V14.88C197.172 14.9093 196.783 15.0193 196.593 15.21C196.417 15.4007 196.329 15.8187 196.329 16.464V22.558C196.329 23.1887 196.417 23.5993 196.593 23.79C196.783 23.9807 197.172 24.0907 197.759 24.12V25H192.369V24.12C192.911 24.0907 193.263 23.9807 193.425 23.79C193.601 23.5993 193.689 23.1887 193.689 22.558ZM210.473 15.672L209.461 15.804C209.006 15.8627 208.669 15.9873 208.449 16.178C208.243 16.3687 208.082 16.6693 207.965 17.08C207.774 17.74 207.561 18.2167 207.327 18.51C207.092 18.8033 206.718 19.038 206.205 19.214V19.302C207.026 19.3753 207.635 19.5953 208.031 19.962C208.427 20.3287 208.749 20.908 208.999 21.7C209.175 22.2867 209.38 22.7193 209.615 22.998C209.849 23.262 210.238 23.438 210.781 23.526L210.539 25.264C209.219 25.264 208.273 25.044 207.701 24.604C207.143 24.1493 206.718 23.4013 206.425 22.36C206.161 21.4507 205.889 20.8273 205.611 20.49C205.347 20.138 204.958 19.962 204.445 19.962H203.543V22.558C203.543 23.1887 203.623 23.5993 203.785 23.79C203.946 23.9807 204.305 24.0907 204.863 24.12V25H199.429V24.12C200.015 24.0907 200.397 23.9807 200.573 23.79C200.763 23.5993 200.859 23.1887 200.859 22.558V16.464C200.859 15.8187 200.763 15.4007 200.573 15.21C200.397 15.0193 200.015 14.9093 199.429 14.88V13.978H204.863V14.88C204.32 14.9093 203.961 15.0193 203.785 15.21C203.623 15.4007 203.543 15.8187 203.543 16.464V18.686H203.961C204.782 18.686 205.391 18.532 205.787 18.224C206.197 17.916 206.498 17.344 206.689 16.508C206.909 15.5107 207.275 14.8067 207.789 14.396C208.302 13.9707 209.131 13.736 210.275 13.692L210.473 15.672Z" fill="white"/>
    <path d="M62.358 38.065V31.3H63.414V38.054H64.261V40.826H63.315V39H56.88V31.3H57.936V38.065H62.358ZM70.8036 36.206V36.393H66.3816C66.4109 36.9723 66.5796 37.438 66.8876 37.79C67.1956 38.142 67.6173 38.318 68.1526 38.318C68.5339 38.318 68.8639 38.2153 69.1426 38.01C69.4286 37.7973 69.6376 37.5077 69.7696 37.141L70.6496 37.394C70.4736 37.9147 70.1619 38.329 69.7146 38.637C69.2673 38.945 68.7466 39.099 68.1526 39.099C67.3019 39.099 66.6236 38.824 66.1176 38.274C65.6116 37.724 65.3586 37.0347 65.3586 36.206C65.3586 35.3847 65.6116 34.699 66.1176 34.149C66.6236 33.599 67.3019 33.324 68.1526 33.324C68.9519 33.324 69.5936 33.599 70.0776 34.149C70.5616 34.7137 70.8036 35.3993 70.8036 36.206ZM66.4366 35.612H69.7366C69.6633 35.15 69.4873 34.7833 69.2086 34.512C68.9299 34.2407 68.5779 34.105 68.1526 34.105C67.6979 34.105 67.3203 34.2407 67.0196 34.512C66.7263 34.776 66.5319 35.1427 66.4366 35.612ZM76.0476 33.423H77.0156V39H76.0476V36.415H73.0886V39H72.1206V33.423H73.0886V35.634H76.0476V33.423ZM77.7852 33.423H82.5152V34.204H80.6342V39H79.6662V34.204H77.7852V33.423ZM86.0977 33.324C86.8897 33.324 87.5167 33.599 87.9787 34.149C88.4407 34.699 88.6717 35.3883 88.6717 36.217C88.6717 37.0457 88.4407 37.7313 87.9787 38.274C87.5167 38.824 86.8897 39.099 86.0977 39.099C85.3644 39.099 84.7704 38.8607 84.3157 38.384H84.2497V41.332H83.2817V33.423H84.1837V34.116H84.2497C84.7191 33.588 85.3351 33.324 86.0977 33.324ZM87.2087 34.699C86.9081 34.3103 86.4864 34.116 85.9437 34.116C85.4011 34.116 84.9831 34.3067 84.6897 34.688C84.3964 35.0693 84.2497 35.6083 84.2497 36.305C84.2497 36.9063 84.3964 37.3903 84.6897 37.757C84.9904 38.1237 85.4084 38.307 85.9437 38.307C86.4864 38.307 86.9081 38.1163 87.2087 37.735C87.5094 37.3537 87.6597 36.8477 87.6597 36.217C87.6597 35.5863 87.5094 35.0803 87.2087 34.699ZM96.0343 35.139L95.2643 35.942V36.019L96.0343 36.91L97.7283 39H96.4963L94.3073 36.283H93.7243V39H92.7563V33.423H93.7243V35.524H94.5273L96.4193 33.423H97.5853L96.0343 35.139ZM98.7204 38.274C98.2071 37.7387 97.9504 37.053 97.9504 36.217C97.9504 35.381 98.2071 34.6917 98.7204 34.149C99.2264 33.599 99.9157 33.324 100.788 33.324C101.654 33.324 102.347 33.599 102.867 34.149C103.381 34.7063 103.637 35.3957 103.637 36.217C103.637 37.0457 103.381 37.7313 102.867 38.274C102.347 38.824 101.654 39.099 100.788 39.099C99.9157 39.099 99.2264 38.824 98.7204 38.274ZM99.4354 34.71C99.1201 35.0987 98.9624 35.601 98.9624 36.217C98.9624 36.833 99.1201 37.3317 99.4354 37.713C99.7507 38.109 100.202 38.307 100.788 38.307C101.368 38.307 101.819 38.1163 102.141 37.735C102.464 37.3463 102.625 36.8403 102.625 36.217C102.625 35.5863 102.464 35.0803 102.141 34.699C101.819 34.3103 101.368 34.116 100.788 34.116C100.202 34.116 99.7507 34.314 99.4354 34.71ZM107.775 33.324C108.567 33.324 109.194 33.599 109.656 34.149C110.118 34.699 110.349 35.3883 110.349 36.217C110.349 37.0457 110.118 37.7313 109.656 38.274C109.194 38.824 108.567 39.099 107.775 39.099C107.042 39.099 106.448 38.8607 105.993 38.384H105.927V41.332H104.959V33.423H105.861V34.116H105.927C106.397 33.588 107.013 33.324 107.775 33.324ZM108.886 34.699C108.586 34.3103 108.164 34.116 107.621 34.116C107.079 34.116 106.661 34.3067 106.367 34.688C106.074 35.0693 105.927 35.6083 105.927 36.305C105.927 36.9063 106.074 37.3903 106.367 37.757C106.668 38.1237 107.086 38.307 107.621 38.307C108.164 38.307 108.586 38.1163 108.886 37.735C109.187 37.3537 109.337 36.8477 109.337 36.217C109.337 35.5863 109.187 35.0803 108.886 34.699ZM114.5 33.324C115.292 33.324 115.919 33.599 116.381 34.149C116.843 34.699 117.074 35.3883 117.074 36.217C117.074 37.0457 116.843 37.7313 116.381 38.274C115.919 38.824 115.292 39.099 114.5 39.099C113.767 39.099 113.173 38.8607 112.718 38.384H112.652V41.332H111.684V33.423H112.586V34.116H112.652C113.121 33.588 113.737 33.324 114.5 33.324ZM115.611 34.699C115.31 34.3103 114.889 34.116 114.346 34.116C113.803 34.116 113.385 34.3067 113.092 34.688C112.799 35.0693 112.652 35.6083 112.652 36.305C112.652 36.9063 112.799 37.3903 113.092 37.757C113.393 38.1237 113.811 38.307 114.346 38.307C114.889 38.307 115.31 38.1163 115.611 37.735C115.912 37.3537 116.062 36.8477 116.062 36.217C116.062 35.5863 115.912 35.0803 115.611 34.699ZM123.634 36.206V36.393H119.212C119.241 36.9723 119.41 37.438 119.718 37.79C120.026 38.142 120.447 38.318 120.983 38.318C121.364 38.318 121.694 38.2153 121.973 38.01C122.259 37.7973 122.468 37.5077 122.6 37.141L123.48 37.394C123.304 37.9147 122.992 38.329 122.545 38.637C122.097 38.945 121.577 39.099 120.983 39.099C120.132 39.099 119.454 38.824 118.948 38.274C118.442 37.724 118.189 37.0347 118.189 36.206C118.189 35.3847 118.442 34.699 118.948 34.149C119.454 33.599 120.132 33.324 120.983 33.324C121.782 33.324 122.424 33.599 122.908 34.149C123.392 34.7137 123.634 35.3993 123.634 36.206ZM119.267 35.612H122.567C122.493 35.15 122.317 34.7833 122.039 34.512C121.76 34.2407 121.408 34.105 120.983 34.105C120.528 34.105 120.15 34.2407 119.85 34.512C119.556 34.776 119.362 35.1427 119.267 35.612ZM128.229 35.139L127.459 35.942V36.019L128.229 36.91L129.923 39H128.691L126.502 36.283H125.919V39H124.951V33.423H125.919V35.524H126.722L128.614 33.423H129.78L128.229 35.139ZM134.518 33.423H135.486V38.219H136.19V40.309H135.409V39H130.58V33.423H131.548V38.219H134.518V33.423ZM141.113 33.423H142.081V39H141.113V36.228L141.179 35.293H141.113L138.154 38.252V39H137.186V33.423H138.154V36.217L138.088 37.152H138.154L141.113 34.204V33.423ZM147.548 33.423H148.516V39H147.548V36.228L147.614 35.293H147.548L144.589 38.252V39H143.621V33.423H144.589V36.217L144.523 37.152H144.589L147.548 34.204V33.423ZM152.805 33.423H156.611V34.204H153.773V39H152.805V33.423ZM161.308 33.423H162.276V39H161.308V36.228L161.374 35.293H161.308L158.349 38.252V39H157.381V33.423H158.349V36.217L158.283 37.152H158.349L161.308 34.204V33.423ZM167.743 33.423H168.711V39H167.743V36.415H164.784V39H163.816V33.423H164.784V35.634H167.743V33.423ZM175.475 36.206V36.393H171.053C171.083 36.9723 171.251 37.438 171.559 37.79C171.867 38.142 172.289 38.318 172.824 38.318C173.206 38.318 173.536 38.2153 173.814 38.01C174.1 37.7973 174.309 37.5077 174.441 37.141L175.321 37.394C175.145 37.9147 174.834 38.329 174.386 38.637C173.939 38.945 173.418 39.099 172.824 39.099C171.974 39.099 171.295 38.824 170.789 38.274C170.283 37.724 170.03 37.0347 170.03 36.206C170.03 35.3847 170.283 34.699 170.789 34.149C171.295 33.599 171.974 33.324 172.824 33.324C173.624 33.324 174.265 33.599 174.749 34.149C175.233 34.7137 175.475 35.3993 175.475 36.206ZM171.108 35.612H174.408C174.335 35.15 174.159 34.7833 173.88 34.512C173.602 34.2407 173.25 34.105 172.824 34.105C172.37 34.105 171.992 34.2407 171.691 34.512C171.398 34.776 171.204 35.1427 171.108 35.612ZM180.07 35.139L179.3 35.942V36.019L180.07 36.91L181.764 39H180.532L178.343 36.283H177.76V39H176.792V33.423H177.76V35.524H178.563L180.455 33.423H181.621L180.07 35.139ZM182.757 38.274C182.243 37.7387 181.987 37.053 181.987 36.217C181.987 35.381 182.243 34.6917 182.757 34.149C183.263 33.599 183.952 33.324 184.825 33.324C185.69 33.324 186.383 33.599 186.904 34.149C187.417 34.7063 187.674 35.3957 187.674 36.217C187.674 37.0457 187.417 37.7313 186.904 38.274C186.383 38.824 185.69 39.099 184.825 39.099C183.952 39.099 183.263 38.824 182.757 38.274ZM183.472 34.71C183.156 35.0987 182.999 35.601 182.999 36.217C182.999 36.833 183.156 37.3317 183.472 37.713C183.787 38.109 184.238 38.307 184.825 38.307C185.404 38.307 185.855 38.1163 186.178 37.735C186.5 37.3463 186.662 36.8403 186.662 36.217C186.662 35.5863 186.5 35.0803 186.178 34.699C185.855 34.3103 185.404 34.116 184.825 34.116C184.238 34.116 183.787 34.314 183.472 34.71ZM194.144 34.754H194.078L192.516 38.01H191.548L189.964 34.732H189.898L189.964 35.667V39H188.996V33.423H190.305L191.592 36.14L191.999 37.075H192.065L192.472 36.14L193.737 33.423H195.046V39H194.078V35.667L194.144 34.754ZM197.622 35.029L196.742 34.765C196.976 33.8043 197.724 33.324 198.986 33.324C199.712 33.324 200.269 33.4963 200.658 33.841C201.046 34.1857 201.241 34.688 201.241 35.348V36.877C201.241 37.999 201.351 38.7067 201.571 39H200.57C200.452 38.802 200.383 38.5563 200.361 38.263H200.295C199.943 38.8203 199.268 39.099 198.271 39.099C197.684 39.099 197.218 38.967 196.874 38.703C196.536 38.4317 196.368 38.0467 196.368 37.548C196.368 36.5287 197.097 35.9493 198.557 35.81C199.473 35.7367 200.045 35.6633 200.273 35.59C200.265 35.062 200.144 34.6843 199.91 34.457C199.682 34.2297 199.334 34.1123 198.865 34.105C198.183 34.105 197.768 34.413 197.622 35.029ZM200.273 36.635V36.283C200.075 36.349 199.543 36.4443 198.678 36.569C198.377 36.613 198.15 36.6607 197.996 36.712C197.871 36.7633 197.765 36.8183 197.677 36.877C197.479 37.031 197.38 37.2437 197.38 37.515C197.38 37.7937 197.482 38.01 197.688 38.164C197.893 38.318 198.157 38.395 198.48 38.395C199.022 38.395 199.455 38.2337 199.778 37.911C200.108 37.5883 200.273 37.163 200.273 36.635ZM207.076 36.998L207.956 37.24C207.802 37.8047 207.498 38.2557 207.043 38.593C206.596 38.9303 206.064 39.099 205.448 39.099C204.59 39.099 203.916 38.824 203.424 38.274C202.918 37.724 202.665 37.0347 202.665 36.206C202.665 35.3847 202.918 34.699 203.424 34.149C203.916 33.599 204.59 33.324 205.448 33.324C206.006 33.324 206.49 33.4633 206.9 33.742C207.318 34.0207 207.63 34.402 207.835 34.886L206.977 35.227C206.691 34.4863 206.182 34.116 205.448 34.116C204.906 34.116 204.473 34.3103 204.15 34.699C203.835 35.0877 203.677 35.59 203.677 36.206C203.677 36.8293 203.831 37.3353 204.139 37.724C204.455 38.1127 204.891 38.307 205.448 38.307C205.859 38.307 206.204 38.1933 206.482 37.966C206.761 37.7313 206.959 37.4087 207.076 36.998ZM208.174 33.423H212.904V34.204H211.023V39H210.055V34.204H208.174V33.423ZM217.597 33.423H218.565V39H217.597V36.228L217.663 35.293H217.597L214.638 38.252V39H213.67V33.423H214.638V36.217L214.572 37.152H214.638L217.597 34.204V33.423ZM224.032 33.423H225V39H224.032V36.228L224.098 35.293H224.032L221.073 38.252V39H220.105V33.423H221.073V36.217L221.007 37.152H221.073L224.032 34.204V33.423Z" fill="white"/>
    <path fill-rule="evenodd" clip-rule="evenodd" d="M21.5 43C33.3741 43 43 33.3741 43 21.5C43 9.62588 33.3741 0 21.5 0C9.62588 0 0 9.62588 0 21.5C0 33.3741 9.62588 43 21.5 43ZM15.454 35.92C17.386 36.656 19.4407 37.024 21.618 37.024C23.1513 37.024 24.5313 36.886 25.758 36.61C27.0153 36.334 28.104 36.012 29.024 35.644C29.9747 35.2453 30.7567 34.8927 31.37 34.586C31.9833 34.2793 32.3973 34.1107 32.612 34.08C32.9493 34.0187 33.164 33.896 33.256 33.712C33.3787 33.4973 33.44 33.298 33.44 33.114C33.44 32.9607 33.3787 32.8073 33.256 32.654C33.164 32.5007 33.0567 32.3473 32.934 32.194C32.8113 32.0407 32.6887 31.9027 32.566 31.78C32.474 31.6573 32.428 31.5193 32.428 31.366V29.94C32.428 29.3573 32.4433 28.8053 32.474 28.284C32.5353 27.7627 32.6273 27.1647 32.75 26.49C32.842 25.8767 33.026 25.4013 33.302 25.064C33.6087 24.7267 34.176 24.4507 35.004 24.236C35.188 24.2053 35.3873 24.1133 35.602 23.96C35.8167 23.8067 35.924 23.6073 35.924 23.362C35.924 23.086 35.8167 22.902 35.602 22.81C35.418 22.6873 35.234 22.626 35.05 22.626C34.1607 22.626 33.2867 22.6567 32.428 22.718C31.6 22.7793 30.7567 22.81 29.898 22.81C29.1927 22.81 28.4567 22.7947 27.69 22.764C26.954 22.7333 26.2027 22.7027 25.436 22.672C24.7 22.6413 23.9793 22.626 23.274 22.626C23.09 22.626 22.8753 22.6873 22.63 22.81C22.4153 22.9327 22.308 23.1167 22.308 23.362C22.308 23.6073 22.4307 23.822 22.676 24.006C22.9213 24.1593 23.1513 24.2513 23.366 24.282C23.642 24.3127 23.9947 24.374 24.424 24.466C24.884 24.5273 25.3287 24.65 25.758 24.834C26.1873 24.9873 26.54 25.1713 26.816 25.386C27.1227 25.5393 27.322 25.754 27.414 26.03C27.5367 26.2753 27.598 26.5667 27.598 26.904C27.598 27.18 27.5827 27.5327 27.552 27.962C27.552 28.3913 27.5367 28.8207 27.506 29.25V30.308C27.4753 31.044 27.3527 31.688 27.138 32.24C26.9233 32.792 26.6473 33.206 26.31 33.482C26.034 33.7273 25.574 34.0187 24.93 34.356C24.3167 34.6627 23.458 34.816 22.354 34.816C20.8207 34.816 19.4407 34.494 18.214 33.85C16.9873 33.206 15.9293 32.286 15.04 31.09C14.1507 29.8633 13.4607 28.4067 12.97 26.72C12.4793 25.0027 12.234 23.086 12.234 20.97C12.234 19.2833 12.4793 17.6733 12.97 16.14C13.4607 14.576 14.166 13.1807 15.086 11.954C16.006 10.7273 17.1407 9.77666 18.49 9.102C19.8393 8.39666 21.3573 8.044 23.044 8.044C24.24 8.044 25.252 8.16666 26.08 8.412C26.908 8.65733 27.5827 8.964 28.104 9.332C28.656 9.66933 29.0853 9.99133 29.392 10.298C29.852 10.7887 30.2353 11.31 30.542 11.862C30.8487 12.3833 31.1247 12.92 31.37 13.472C31.4927 13.748 31.6307 14.0087 31.784 14.254C31.9373 14.4687 32.1827 14.576 32.52 14.576C32.7347 14.576 32.9033 14.484 33.026 14.3C33.1793 14.116 33.256 13.9013 33.256 13.656C33.256 12.9813 33.21 12.184 33.118 11.264C33.026 10.344 32.9033 9.378 32.75 8.366C32.7193 8.12066 32.6427 7.93666 32.52 7.814C32.3973 7.66066 32.2287 7.538 32.014 7.446C31.5847 7.262 30.9713 7.078 30.174 6.894C29.4073 6.71 28.564 6.54133 27.644 6.388C26.724 6.23467 25.8347 6.112 24.976 6.02C24.1173 5.89733 23.3967 5.836 22.814 5.836C20.2687 5.836 17.938 6.28066 15.822 7.17C13.7367 8.02866 11.9273 9.20933 10.394 10.712C8.86067 12.184 7.66467 13.886 6.806 15.818C5.978 17.75 5.564 19.8047 5.564 21.982C5.564 24.19 5.978 26.214 6.806 28.054C7.66467 29.894 8.83 31.4887 10.302 32.838C11.8047 34.1567 13.522 35.184 15.454 35.92Z" fill="white"/>
</svg>
