<svg width="43" height="43" viewBox="0 0 43 43" fill="none" xmlns="http://www.w3.org/2000/svg">
    <path fill-rule="evenodd" clip-rule="evenodd" d="M21.5 43C33.3741 43 43 33.3741 43 21.5C43 9.62588 33.3741 0 21.5 0C9.62588 0 0 9.62588 0 21.5C0 33.3741 9.62588 43 21.5 43ZM15.96 35.92C17.892 36.656 19.916 37.024 22.032 37.024C23.504 37.024 24.8533 36.8707 26.08 36.564C27.3067 36.288 28.3953 35.9507 29.346 35.552C30.2967 35.1533 31.0787 34.8007 31.692 34.494C32.336 34.1567 32.7653 33.9727 32.98 33.942C33.3173 33.8807 33.5013 33.758 33.532 33.574C33.5933 33.3593 33.624 33.1907 33.624 33.068C33.624 32.9453 33.5473 32.8227 33.394 32.7C33.2407 32.5773 33.118 32.4393 33.026 32.286C32.9647 32.1327 32.9033 32.01 32.842 31.918C32.7807 31.826 32.75 31.7033 32.75 31.55V30.308C32.75 29.7253 32.7653 29.1733 32.796 28.652C32.8267 28.1307 32.888 27.5327 32.98 26.858C33.072 26.2447 33.2407 25.7693 33.486 25.432C33.762 25.064 34.2373 24.788 34.912 24.604C35.0347 24.5733 35.2187 24.4813 35.464 24.328C35.74 24.1747 35.878 23.9907 35.878 23.776C35.878 23.4693 35.74 23.27 35.464 23.178C35.2187 23.086 35.0347 23.04 34.912 23.04C34.084 23.04 33.394 23.0707 32.842 23.132C32.29 23.1933 31.6153 23.224 30.818 23.224C29.99 23.224 29.2847 23.2087 28.702 23.178C28.1193 23.1473 27.552 23.1167 27 23.086C26.448 23.0553 25.7887 23.04 25.022 23.04C24.8993 23.04 24.7153 23.1167 24.47 23.27C24.2247 23.3927 24.102 23.5767 24.102 23.822C24.102 24.0367 24.2247 24.2207 24.47 24.374C24.7153 24.5273 24.8993 24.604 25.022 24.604C25.3287 24.604 25.7887 24.65 26.402 24.742C27.0153 24.834 27.6287 24.9873 28.242 25.202C28.8553 25.4167 29.2847 25.6927 29.53 26.03C29.622 26.1527 29.6833 26.3367 29.714 26.582C29.7447 26.7967 29.76 27.0727 29.76 27.41C29.76 27.686 29.7447 27.9773 29.714 28.284C29.714 28.5907 29.6987 28.8973 29.668 29.204V30.078C29.668 30.8753 29.5147 31.5807 29.208 32.194C28.932 32.8073 28.6253 33.2827 28.288 33.62C28.012 33.896 27.4447 34.2487 26.586 34.678C25.758 35.1073 24.4547 35.322 22.676 35.322C21.1427 35.322 19.6553 35.0153 18.214 34.402C16.7727 33.7887 15.4847 32.884 14.35 31.688C13.2153 30.492 12.3107 29.0353 11.636 27.318C10.9613 25.6007 10.624 23.6533 10.624 21.476C10.624 19.6667 10.9 17.934 11.452 16.278C12.0347 14.622 12.8473 13.15 13.89 11.862C14.9633 10.5433 16.236 9.516 17.708 8.78C19.18 8.01333 20.8053 7.63 22.584 7.63C24.056 7.63 25.298 7.78333 26.31 8.09C27.322 8.39667 28.1193 8.74933 28.702 9.148C29.3153 9.516 29.714 9.82267 29.898 10.068C30.266 10.4973 30.542 10.896 30.726 11.264C30.9407 11.6013 31.14 12.0153 31.324 12.506C31.416 12.782 31.5387 13.058 31.692 13.334C31.8453 13.61 32.0753 13.748 32.382 13.748C32.566 13.748 32.7193 13.656 32.842 13.472C32.9953 13.2573 33.072 13.0427 33.072 12.828C33.072 12.2147 33.026 11.4787 32.934 10.62C32.842 9.73067 32.7347 8.84133 32.612 7.952C32.5813 7.79867 32.5353 7.69133 32.474 7.63C32.4433 7.538 32.3513 7.46133 32.198 7.4C31.8913 7.24666 31.3393 7.09333 30.542 6.94C29.7753 6.756 28.9013 6.58733 27.92 6.434C26.9693 6.28067 26.034 6.158 25.114 6.066C24.2247 5.94333 23.5193 5.882 22.998 5.882C20.698 5.882 18.5207 6.296 16.466 7.124C14.442 7.952 12.648 9.102 11.084 10.574C9.52 12.046 8.29333 13.7633 7.404 15.726C6.51467 17.6887 6.07 19.8047 6.07 22.074C6.07 24.19 6.49933 26.168 7.358 28.008C8.21667 29.8173 9.382 31.3967 10.854 32.746C12.3567 34.0953 14.0587 35.1533 15.96 35.92Z" fill="white"/>
</svg>
