<svg width="43" height="43" viewBox="0 0 43 43" fill="none" xmlns="http://www.w3.org/2000/svg">
    <path fill-rule="evenodd" clip-rule="evenodd" d="M21.5 43C33.3741 43 43 33.3741 43 21.5C43 9.62588 33.3741 0 21.5 0C9.62588 0 0 9.62588 0 21.5C0 33.3741 9.62588 43 21.5 43ZM15.454 35.92C17.386 36.656 19.4407 37.024 21.618 37.024C23.1513 37.024 24.5313 36.886 25.758 36.61C27.0153 36.334 28.104 36.012 29.024 35.644C29.9747 35.2453 30.7567 34.8927 31.37 34.586C31.9833 34.2793 32.3973 34.1107 32.612 34.08C32.9493 34.0187 33.164 33.896 33.256 33.712C33.3787 33.4973 33.44 33.298 33.44 33.114C33.44 32.9607 33.3787 32.8073 33.256 32.654C33.164 32.5007 33.0567 32.3473 32.934 32.194C32.8113 32.0407 32.6887 31.9027 32.566 31.78C32.474 31.6573 32.428 31.5193 32.428 31.366V29.94C32.428 29.3573 32.4433 28.8053 32.474 28.284C32.5353 27.7627 32.6273 27.1647 32.75 26.49C32.842 25.8767 33.026 25.4013 33.302 25.064C33.6087 24.7267 34.176 24.4507 35.004 24.236C35.188 24.2053 35.3873 24.1133 35.602 23.96C35.8167 23.8067 35.924 23.6073 35.924 23.362C35.924 23.086 35.8167 22.902 35.602 22.81C35.418 22.6873 35.234 22.626 35.05 22.626C34.1607 22.626 33.2867 22.6567 32.428 22.718C31.6 22.7793 30.7567 22.81 29.898 22.81C29.1927 22.81 28.4567 22.7947 27.69 22.764C26.954 22.7333 26.2027 22.7027 25.436 22.672C24.7 22.6413 23.9793 22.626 23.274 22.626C23.09 22.626 22.8753 22.6873 22.63 22.81C22.4153 22.9327 22.308 23.1167 22.308 23.362C22.308 23.6073 22.4307 23.822 22.676 24.006C22.9213 24.1593 23.1513 24.2513 23.366 24.282C23.642 24.3127 23.9947 24.374 24.424 24.466C24.884 24.5273 25.3287 24.65 25.758 24.834C26.1873 24.9873 26.54 25.1713 26.816 25.386C27.1227 25.5393 27.322 25.754 27.414 26.03C27.5367 26.2753 27.598 26.5667 27.598 26.904C27.598 27.18 27.5827 27.5327 27.552 27.962C27.552 28.3913 27.5367 28.8207 27.506 29.25V30.308C27.4753 31.044 27.3527 31.688 27.138 32.24C26.9233 32.792 26.6473 33.206 26.31 33.482C26.034 33.7273 25.574 34.0187 24.93 34.356C24.3167 34.6627 23.458 34.816 22.354 34.816C20.8207 34.816 19.4407 34.494 18.214 33.85C16.9873 33.206 15.9293 32.286 15.04 31.09C14.1507 29.8633 13.4607 28.4067 12.97 26.72C12.4793 25.0027 12.234 23.086 12.234 20.97C12.234 19.2833 12.4793 17.6733 12.97 16.14C13.4607 14.576 14.166 13.1807 15.086 11.954C16.006 10.7273 17.1407 9.77666 18.49 9.102C19.8393 8.39666 21.3573 8.044 23.044 8.044C24.24 8.044 25.252 8.16666 26.08 8.412C26.908 8.65733 27.5827 8.964 28.104 9.332C28.656 9.66933 29.0853 9.99133 29.392 10.298C29.852 10.7887 30.2353 11.31 30.542 11.862C30.8487 12.3833 31.1247 12.92 31.37 13.472C31.4927 13.748 31.6307 14.0087 31.784 14.254C31.9373 14.4687 32.1827 14.576 32.52 14.576C32.7347 14.576 32.9033 14.484 33.026 14.3C33.1793 14.116 33.256 13.9013 33.256 13.656C33.256 12.9813 33.21 12.184 33.118 11.264C33.026 10.344 32.9033 9.378 32.75 8.366C32.7193 8.12066 32.6427 7.93666 32.52 7.814C32.3973 7.66066 32.2287 7.538 32.014 7.446C31.5847 7.262 30.9713 7.078 30.174 6.894C29.4073 6.71 28.564 6.54133 27.644 6.388C26.724 6.23467 25.8347 6.112 24.976 6.02C24.1173 5.89733 23.3967 5.836 22.814 5.836C20.2687 5.836 17.938 6.28066 15.822 7.17C13.7367 8.02866 11.9273 9.20933 10.394 10.712C8.86067 12.184 7.66467 13.886 6.806 15.818C5.978 17.75 5.564 19.8047 5.564 21.982C5.564 24.19 5.978 26.214 6.806 28.054C7.66467 29.894 8.83 31.4887 10.302 32.838C11.8047 34.1567 13.522 35.184 15.454 35.92Z" fill="white"/>
</svg>
