<svg width="40" height="40" viewBox="0 0 40 40" fill="none" xmlns="http://www.w3.org/2000/svg">
<path d="M15.1562 19.4934V22.4076C15.1562 22.7935 14.9342 23.145 14.5856 23.3107L7.35331 26.7488C5.61048 27.5773 4.5 29.3348 4.5 31.2646V34.6908M23.875 19.4934V22.3844C23.875 22.7822 24.1108 23.1422 24.4755 23.3011L32.4974 26.7968C34.3209 27.5915 35.5 29.3914 35.5 31.3805V38.25C35.5 38.8023 35.0523 39.25 34.5 39.25H5.5C4.94772 39.25 4.5 38.8023 4.5 38.25V37.2237" stroke="white" stroke-linecap="round"/>
<path d="M11.5 24.5592C17.6883 29.3059 21.1897 29.3328 27.5 24.5592" stroke="white"/>
<path d="M10.5 25.0658V31.1447" stroke="white"/>
<path d="M12.2 32.4251C12.2 33.3871 11.4321 34.1547 10.5 34.1547C9.56787 34.1547 8.8 33.3871 8.8 32.4251C8.8 31.4631 9.56787 30.6955 10.5 30.6955C11.4321 30.6955 12.2 31.4631 12.2 32.4251Z" stroke="white" stroke-width="1.1"/>
<path d="M29.5 25.5724V29.625" stroke="white"/>
<path d="M27.7857 37.2237H26.7C26.5895 37.2237 26.5 37.1341 26.5 37.0237V32.1184C26.5 30.4616 27.8431 29.1184 29.5 29.1184V29.1184C31.1569 29.1184 32.5 30.4616 32.5 32.1184V37.0237C32.5 37.1341 32.4105 37.2237 32.3 37.2237H31.2143" stroke="white" stroke-linecap="round"/>
<path d="M18.5 9.86842H26.5V3.67356C26.5 2.90066 26.0547 2.19695 25.3562 1.86608L23.4064 0.942524C23.1388 0.815758 22.8464 0.75 22.5503 0.75H16.4497C16.1536 0.75 15.8612 0.815758 15.5936 0.942524L13.6438 1.86608C12.9453 2.19695 12.5 2.90066 12.5 3.67356V9.86842H16" stroke="white" stroke-linecap="round"/>
<path d="M12.5 9.86841V14.0131C12.5 17.8791 15.634 21.0131 19.5 21.0131V21.0131C23.366 21.0131 26.5 17.8791 26.5 14.0132V9.86841" stroke="white" stroke-linecap="round"/>
<path d="M26.5 9.87959C27.6276 10.0204 28.5 10.9823 28.5 12.148C28.5 13.3137 27.6276 14.2757 26.5 14.4165V9.87959Z" stroke="white"/>
<path d="M12.5 14.4165C11.3724 14.2757 10.5 13.3137 10.5 12.148C10.5 10.9823 11.3724 10.0204 12.5 9.87957V14.4165Z" stroke="white"/>
<path d="M18.4286 6.39473V7.3421C18.4286 7.61824 18.6524 7.8421 18.9286 7.8421H19.5H20.0714C20.3476 7.8421 20.5714 7.61824 20.5714 7.3421V6.39473" stroke="white" stroke-linecap="round"/>
<path d="M20.5714 4.22367V3.27631C20.5714 3.00016 20.3476 2.77631 20.0714 2.77631H19.5H18.9286C18.6524 2.77631 18.4286 3.00016 18.4286 3.27631V4.22367" stroke="white" stroke-linecap="round"/>
<path d="M18.4286 4.22369H17.5C17.2239 4.22369 17 4.44755 17 4.72369V5.30922V5.89474C17 6.17089 17.2239 6.39474 17.5 6.39474H18.4286" stroke="white" stroke-linecap="round"/>
<path d="M20.5714 6.39472H21.5C21.7761 6.39472 22 6.17086 22 5.89472V5.30919V4.72366C22 4.44752 21.7761 4.22366 21.5 4.22366H20.5714" stroke="white" stroke-linecap="round"/>
</svg>