<svg width="40" height="40" viewBox="0 0 40 40" fill="none" xmlns="http://www.w3.org/2000/svg">
    <path d="M8.32 3.69667H4.44C4.16386 3.69667 3.94 3.92052 3.94 4.19667V10.51C3.94 15.8856 8.29776 20.2433 13.6733 20.2433V20.2433C19.0489 20.2433 23.4067 15.8856 23.4067 10.51V4.19667C23.4067 3.92052 23.1828 3.69667 22.9067 3.69667H20.4867H19.0267M8.32 1.75V5.64333" stroke="white" stroke-width="2.5" stroke-linecap="round"/>
    <path d="M19.0267 1.75V5.64333" stroke="white" stroke-width="2.5" stroke-linecap="round"/>
    <path d="M13.6733 20.2433V29.7333C13.6733 34.437 17.4864 38.25 22.19 38.25V38.25C26.8936 38.25 30.7067 34.437 30.7067 29.7334V23.1633" stroke="white" stroke-width="2.5" stroke-linecap="round"/>
    <path d="M34.56 18.7615C34.56 20.8897 32.8348 22.6148 30.7067 22.6148C28.5785 22.6148 26.8533 20.8897 26.8533 18.7615C26.8533 16.6334 28.5785 14.9082 30.7067 14.9082C32.8348 14.9082 34.56 16.6334 34.56 18.7615Z" stroke="white" stroke-width="3"/>
</svg>
