<svg width="30" height="30" viewBox="0 0 30 30" fill="none" xmlns="http://www.w3.org/2000/svg">
<g clip-path="url(#clip0_10_276)">
<path d="M11.4063 14.7054V16.7335C11.4063 17.118 11.1857 17.4685 10.8391 17.635L6.33586 19.7971C4.60255 20.6293 3.5 22.3818 3.5 24.3045V26.0936M17.875 14.7054V16.7102C17.875 17.1067 18.1093 17.4658 18.4722 17.6255L23.5142 19.8446C25.3287 20.6432 26.5 22.4384 26.5 24.4209V28.51C26.5 29.0623 26.0523 29.51 25.5 29.51H4.5C3.94772 29.51 3.5 29.0623 3.5 28.51V27.9916" stroke="white" stroke-linecap="round"/>
<path d="M8.69356 18.5015C13.2849 22.0584 15.8827 22.0786 20.5645 18.5015" stroke="white"/>
<path d="M7.95161 18.8811V23.4363" stroke="white"/>
<path d="M9.07098 24.3958C9.07098 25.0475 8.55796 25.554 7.95163 25.554C7.34529 25.554 6.83227 25.0475 6.83227 24.3958C6.83227 23.7441 7.34529 23.2376 7.95163 23.2376C8.55796 23.2376 9.07098 23.7441 9.07098 24.3958Z" stroke="white" stroke-width="1.1"/>
<path d="M22.0484 19.2607V22.2975" stroke="white"/>
<path d="M20.7765 27.9916H20.0226C19.9121 27.9916 19.8226 27.902 19.8226 27.7916V24.1437C19.8226 22.9144 20.8191 21.9179 22.0484 21.9179V21.9179C23.2777 21.9179 24.2742 22.9144 24.2742 24.1437V27.7916C24.2742 27.902 24.1847 27.9916 24.0742 27.9916H23.3203" stroke="white" stroke-linecap="round"/>
<path d="M13.8871 7.4929H19.8226V3.16261C19.8226 2.39251 19.3804 1.69081 18.6857 1.35845L17.6352 0.855846C17.3657 0.726923 17.0707 0.660004 16.772 0.660004H12.486C12.1873 0.660004 11.8924 0.726923 11.6229 0.855846L10.5723 1.35846C9.87765 1.69081 9.43549 2.39251 9.43549 3.16261V7.4929H12.0323" stroke="white" stroke-linecap="round"/>
<path d="M9.43549 7.49292V10.6507C9.43549 13.519 11.7607 15.8442 14.629 15.8442V15.8442C17.4974 15.8442 19.8226 13.519 19.8226 10.6507V7.49292" stroke="white" stroke-linecap="round"/>
<path d="M19.9516 7.65474C20.6541 7.81856 21.1774 8.44872 21.1774 9.20111C21.1774 9.9535 20.6541 10.5837 19.9516 10.7475V7.65474Z" stroke="white"/>
<path d="M9.30644 10.7475C8.60395 10.5837 8.08064 9.95353 8.08064 9.20114C8.08064 8.44875 8.60395 7.81858 9.30644 7.65477V10.7475Z" stroke="white"/>
<path d="M13.8341 4.8899V5.47449C13.8341 5.75063 14.058 5.97449 14.3341 5.97449H14.629H14.924C15.2001 5.97449 15.424 5.75063 15.424 5.47449V4.8899" stroke="white" stroke-linecap="round"/>
<path d="M15.424 3.26299V2.67841C15.424 2.40226 15.2001 2.17841 14.924 2.17841H14.629H14.3341C14.0579 2.17841 13.8341 2.40226 13.8341 2.67841V3.26299" stroke="white" stroke-linecap="round"/>
<path d="M13.8341 3.26298H13.2742C12.9981 3.26298 12.7742 3.48684 12.7742 3.76298V4.07642V4.38986C12.7742 4.666 12.9981 4.88986 13.2742 4.88986H13.8341" stroke="white" stroke-linecap="round"/>
<path d="M15.424 4.88988H15.9839C16.26 4.88988 16.4839 4.66602 16.4839 4.38988V4.07644V3.763C16.4839 3.48686 16.26 3.263 15.9839 3.263H15.424" stroke="white" stroke-linecap="round"/>
</g>
<defs>
<clipPath id="clip0_10_276">
<rect width="30" height="30" fill="white"/>
</clipPath>
</defs>
</svg>