<svg width="40" height="40" viewBox="0 0 40 40" fill="none" xmlns="http://www.w3.org/2000/svg">
<g clip-path="url(#clip0_9_215)">
<path fill-rule="evenodd" clip-rule="evenodd" d="M5.12821 6.03178C3.42887 6.03178 2.05128 7.48889 2.05128 9.28632V27.6541C2.05128 29.4515 3.42887 30.9086 5.1282 30.9086H13.8835C14.7332 30.9086 15.422 31.6372 15.422 32.5359V36.815L22.2257 31.2487C22.4952 31.0282 22.8262 30.9086 23.1669 30.9086H32.2598C33.9592 30.9086 35.3368 29.4515 35.3368 27.6541V14.1428C35.3368 13.5436 35.796 13.0579 36.3624 13.0579C36.9289 13.0579 37.388 13.5436 37.388 14.1428V27.6541C37.388 30.6498 35.0921 33.0783 32.2598 33.0783H23.3421L15.1891 39.7484L14.5616 38.8903L15.1891 39.7484C14.4476 40.355 13.3707 39.7961 13.3707 38.8045V33.0783H5.1282C2.29597 33.0783 0 30.6498 0 27.6541V9.28632C0 6.2906 2.29598 3.86209 5.12821 3.86209H23.9468C24.5132 3.86209 24.9724 4.34779 24.9724 4.94694C24.9724 5.54608 24.5132 6.03178 23.9468 6.03178H5.12821Z" fill="white"/>
<path fill-rule="evenodd" clip-rule="evenodd" d="M24.0885 14.3223L24.0885 16.7505H26.3841L37.3243 5.1788L35.0287 2.75066L24.0885 14.3223ZM22.4878 12.947C22.1993 13.2522 22.0372 13.6661 22.0372 14.0977L22.0372 17.8353C22.0372 18.4345 22.4964 18.9202 23.0628 18.9202L26.8089 18.9202C27.081 18.9202 27.3418 18.8059 27.5342 18.6024L39.5 5.9459C39.9005 5.52225 39.9005 4.83536 39.5 4.4117L35.7539 0.449352C35.3534 0.025693 34.704 0.0256931 34.3034 0.449351L22.4878 12.947Z" fill="white"/>
<path fill-rule="evenodd" clip-rule="evenodd" d="M5.18292 11.5572C5.18292 10.9581 5.64212 10.4724 6.20856 10.4724H16.6291C17.1955 10.4724 17.6547 10.9581 17.6547 11.5572C17.6547 12.1563 17.1955 12.642 16.6291 12.642H6.20856C5.64212 12.642 5.18292 12.1563 5.18292 11.5572Z" fill="white"/>
<path fill-rule="evenodd" clip-rule="evenodd" d="M5.18292 18.153C5.18292 17.5539 5.64212 17.0682 6.20856 17.0682H16.6291C17.1955 17.0682 17.6547 17.5539 17.6547 18.153C17.6547 18.7522 17.1955 19.2379 16.6291 19.2379H6.20856C5.64212 19.2379 5.18292 18.7522 5.18292 18.153Z" fill="white"/>
<path fill-rule="evenodd" clip-rule="evenodd" d="M5.19659 24.7345C5.19659 24.1354 5.65579 23.6497 6.22224 23.6497L30.1265 23.6497C30.693 23.6497 31.1522 24.1354 31.1522 24.7345C31.1522 25.3336 30.693 25.8193 30.1265 25.8193H6.22224C5.65579 25.8193 5.19659 25.3336 5.19659 24.7345Z" fill="white"/>
</g>
<defs>
<clipPath id="clip0_9_215">
<rect width="40" height="40" fill="white"/>
</clipPath>
</defs>
</svg>