<svg width="30" height="30" viewBox="0 0 30 30" fill="none" xmlns="http://www.w3.org/2000/svg">
<g clip-path="url(#clip0_9_231)">
<path fill-rule="evenodd" clip-rule="evenodd" d="M3.84615 4.46241C2.57165 4.46241 1.53846 5.5553 1.53846 6.90345V20.68C1.53846 22.0282 2.57165 23.1211 3.84615 23.1211H10.4126C11.0499 23.1211 11.5665 23.6675 11.5665 24.3416V27.5511L16.6692 23.3762C16.8714 23.2108 17.1197 23.1211 17.3752 23.1211H24.1949C25.4694 23.1211 26.5026 22.0282 26.5026 20.68V10.546C26.5026 10.0966 26.847 9.7323 27.2718 9.7323C27.6966 9.7323 28.041 10.0966 28.041 10.546V20.68C28.041 22.927 26.3191 24.7484 24.1949 24.7484H17.5066L11.3918 29.7513L10.9212 29.1077L11.3918 29.7513C10.8357 30.2063 10.028 29.787 10.028 29.0433V24.7484H3.84615C1.72198 24.7484 0 22.927 0 20.68V6.90345C0 4.65654 1.72198 2.83505 3.84615 2.83505H17.9601C18.3849 2.83505 18.7293 3.19935 18.7293 3.64873C18.7293 4.09812 18.3849 4.46241 17.9601 4.46241H3.84615Z" fill="white"/>
<path fill-rule="evenodd" clip-rule="evenodd" d="M18.1227 10.6807V12.5019L19.8445 12.5019L28.0496 3.82269L26.3279 2.00148L18.1227 10.6807ZM16.9222 9.64917C16.7058 9.87806 16.5843 10.1885 16.5843 10.5122L16.5843 13.3156C16.5843 13.765 16.9287 14.1293 17.3535 14.1293L20.1631 14.1293C20.3671 14.1293 20.5628 14.0436 20.707 13.891L29.6814 4.39805C29.9818 4.08028 29.9818 3.56509 29.6814 3.24733L26.8718 0.2754C26.5714 -0.0423617 26.0843 -0.0423612 25.7839 0.2754L16.9222 9.64917Z" fill="white"/>
<path fill-rule="evenodd" clip-rule="evenodd" d="M3.88721 8.6064C3.88721 8.15719 4.2316 7.79303 4.65644 7.79303H12.4718C12.8967 7.79303 13.2411 8.15719 13.2411 8.6064C13.2411 9.0556 12.8967 9.41976 12.4718 9.41976H4.65644C4.2316 9.41976 3.88721 9.0556 3.88721 8.6064Z" fill="white"/>
<path fill-rule="evenodd" clip-rule="evenodd" d="M3.88721 13.5536C3.88721 13.1044 4.2316 12.7402 4.65644 12.7402H12.4718C12.8967 12.7402 13.2411 13.1044 13.2411 13.5536C13.2411 14.0028 12.8967 14.3669 12.4718 14.3669H4.65644C4.2316 14.3669 3.88721 14.0028 3.88721 13.5536Z" fill="white"/>
<path fill-rule="evenodd" clip-rule="evenodd" d="M3.89746 18.4899C3.89746 18.0407 4.24186 17.6766 4.66669 17.6766L22.5949 17.6766C23.0197 17.6766 23.3641 18.0407 23.3641 18.4899C23.3641 18.9391 23.0197 19.3033 22.5949 19.3033H4.66669C4.24186 19.3033 3.89746 18.9391 3.89746 18.4899Z" fill="white"/>
</g>
<defs>
<clipPath id="clip0_9_231">
<rect width="30" height="30" fill="white"/>
</clipPath>
</defs>
</svg>