<svg class="interaction__svg" xmlns="http://www.w3.org/2000/svg"
    viewBox="0 0 22 22">
    <path d="M22,4.666L21.981,0.809A0.787,0.787,0,0,0,21.2.032L17.331,0.01a0.776,0.776,0,1,0,0,1.551l2,0.018-6.118,6.1a0.778,0.778,0,0,0,1.1,1.1l6.118-6.1,0.018,1.985A0.776,0.776,0,0,0,22,4.666ZM0,4.666L0.019,0.809A0.787,0.787,0,0,1,.8.032L4.669,0.01a0.776,0.776,0,1,1,0,1.551l-2,.018,6.118,6.1a0.778,0.778,0,0,1-1.1,1.1l-6.118-6.1L1.549,4.664A0.776,0.776,0,0,1,0,4.666ZM22,17.334l-0.022,3.858a0.787,0.787,0,0,1-.778.777l-3.873.021a0.776,0.776,0,1,1,0-1.551l2-.018-6.118-6.1a0.778,0.778,0,0,1,1.1-1.1l6.118,6.1,0.018-1.985A0.776,0.776,0,0,1,22,17.334ZM0,17.334l0.022,3.858a0.787,0.787,0,0,0,.778.777L4.669,21.99a0.776,0.776,0,1,0,0-1.551l-2-.018,6.118-6.1a0.778,0.778,0,0,0-1.1-1.1l-6.118,6.1L1.549,17.336A0.776,0.776,0,0,0,0,17.334Z"/>
</svg>