<svg width="40" height="40" viewBox="0 0 40 40" fill="none" xmlns="http://www.w3.org/2000/svg">
<g clip-path="url(#clip0_9_183)">
<path d="M33.7782 15.0141C33.7782 16.4216 33.2534 18.2803 32.3041 20.4393C31.3664 22.572 30.0661 24.8844 28.6306 27.1644C25.7606 31.723 22.4132 36.0539 20.5286 38.4009C20.256 38.7404 19.7721 38.7404 19.4996 38.4009C17.6149 36.0539 14.2675 31.723 11.3976 27.1644C9.96209 24.8844 8.66173 22.572 7.72403 20.4393C6.77473 18.2803 6.25 16.4216 6.25 15.0141C6.25 7.41239 12.4124 1.25 20.0141 1.25C27.6158 1.25 33.7782 7.41239 33.7782 15.0141Z" stroke="white" stroke-width="2.5"/>
<circle cx="20.014" cy="15.014" r="5.67958" stroke="white" stroke-width="2.5"/>
</g>
<defs>
<clipPath id="clip0_9_183">
<rect width="40" height="40" fill="white"/>
</clipPath>
</defs>
</svg>