<svg width="30" height="30" viewBox="0 0 30 30" fill="none" xmlns="http://www.w3.org/2000/svg">
<g clip-path="url(#clip0_9_192)">
<path d="M25.4542 11.3521C25.4542 12.3109 25.1082 13.6029 24.4465 15.1449C23.7952 16.663 22.8845 18.3185 21.8616 19.9719C19.8167 23.2774 17.3841 26.478 15.858 28.3999C15.5908 28.7364 15.1134 28.7364 14.8462 28.3999C13.3202 26.4779 10.8875 23.2774 8.84261 19.9719C7.81977 18.3185 6.90908 16.663 6.25771 15.1449C5.59607 13.6029 5.25 12.3109 5.25 11.3521C5.25 5.77287 9.77287 1.25 15.3521 1.25C20.9314 1.25 25.4542 5.77287 25.4542 11.3521Z" stroke="white" stroke-width="2.5"/>
<circle cx="15.3521" cy="11.3521" r="3.98944" stroke="white" stroke-width="2.5"/>
</g>
<defs>
<clipPath id="clip0_9_192">
<rect width="30" height="30" fill="white"/>
</clipPath>
</defs>
</svg>