<svg width="40" height="40" viewBox="0 0 40 40" fill="none" xmlns="http://www.w3.org/2000/svg">
<g clip-path="url(#clip0_54_40)">
<circle cx="20" cy="20" r="18.375" stroke="white" stroke-width="3.25"/>
<path d="M17 17V11V9.5C17 8.39543 17.8954 7.5 19 7.5H20H21C22.1046 7.5 23 8.39543 23 9.5V11V17H30.5V17C31.6046 17 32.5 17.8954 32.5 19V20.5V21C32.5 22.1046 31.6046 23 30.5 23V23C28.1569 23 25.3431 23 23 23V30V30.5C23 31.6046 22.1046 32.5 21 32.5H20H19C17.8954 32.5 17 31.6046 17 30.5V30V23H10H9.5C8.39543 23 7.5 22.1046 7.5 21V20V19C7.5 17.8954 8.39543 17 9.5 17H10.5H17Z" fill="white"/>
</g>
<defs>
<clipPath id="clip0_54_40">
<rect width="40" height="40" fill="white"/>
</clipPath>
</defs>
</svg>