<svg width="40" height="40" viewBox="0 0 40 40" fill="none" xmlns="http://www.w3.org/2000/svg">
    <path d="M15.2 15.2V5.6V2C15.2 0.895429 16.0954 0 17.2 0H20H22.8C23.9046 0 24.8 0.895431 24.8 2V5.6V15.2H36.8H38C39.1046 15.2 40 16.0954 40 17.2V20.8V22.8C40 23.9046 39.1046 24.8 38 24.8H36.8C33.051 24.8 28.549 24.8 24.8 24.8V36V38C24.8 39.1046 23.9046 40 22.8 40H20H17.2C16.0954 40 15.2 39.1046 15.2 38V36V24.8H4H2C0.895431 24.8 0 23.9046 0 22.8V20V17.2C0 16.0954 0.895431 15.2 2 15.2H4.8H15.2Z" fill="white"/>
</svg>
