<svg width="30" height="30" viewBox="0 0 30 30" fill="none" xmlns="http://www.w3.org/2000/svg">
<g clip-path="url(#clip0_54_41)">
<circle cx="15" cy="15" r="13.375" stroke="white" stroke-width="3.25"/>
<path d="M12.75 12.75V8.25V7.625C12.75 6.52043 13.6454 5.625 14.75 5.625H15H15.25C16.3546 5.625 17.25 6.52043 17.25 7.625V8.25V12.75H22.875V12.75C23.7034 12.75 24.375 13.4216 24.375 14.25V15.375V15.75C24.375 16.5784 23.7034 17.25 22.875 17.25V17.25C21.1176 17.25 19.0074 17.25 17.25 17.25V22.5V22.5C17.25 23.5355 16.4105 24.375 15.375 24.375H15H14.625C13.5895 24.375 12.75 23.5355 12.75 22.5V22.5V17.25H7.5V17.25C6.46447 17.25 5.625 16.4105 5.625 15.375V15V14.75C5.625 13.6454 6.52043 12.75 7.625 12.75H7.875H12.75Z" fill="white"/>
</g>
<defs>
<clipPath id="clip0_54_41">
<rect width="30" height="30" fill="white"/>
</clipPath>
</defs>
</svg>