<svg width="40" height="40" viewBox="0 0 40 40" fill="none" xmlns="http://www.w3.org/2000/svg">
<g clip-path="url(#clip0_8_130)">
<circle cx="20" cy="20" r="18.75" stroke="white" stroke-width="2.5"/>
<path fill-rule="evenodd" clip-rule="evenodd" d="M16.5 31C15.9477 31 15.5 30.5523 15.5 30L15.5 11C15.5 10.4477 15.9477 10 16.5 10C17.0523 10 17.5 10.4477 17.5 11L17.5 30C17.5 30.5523 17.0523 31 16.5 31Z" fill="white"/>
<path fill-rule="evenodd" clip-rule="evenodd" d="M13 26C13 25.4477 13.4477 25 14 25L22.5 25C23.0523 25 23.5 25.4477 23.5 26C23.5 26.5523 23.0523 27 22.5 27L14 27C13.4477 27 13 26.5523 13 26Z" fill="white"/>
<path fill-rule="evenodd" clip-rule="evenodd" d="M15.5 11C15.5 10.4477 15.9477 10 16.5 10L22.5 10C23.0523 10 23.5 10.4477 23.5 11C23.5 11.5523 23.0523 12 22.5 12L16.5 12C15.9477 12 15.5 11.5523 15.5 11Z" fill="white"/>
<path fill-rule="evenodd" clip-rule="evenodd" d="M13 21C13 20.4477 13.4477 20 14 20L22.5 20C23.0523 20 23.5 20.4477 23.5 21C23.5 21.5523 23.0523 22 22.5 22L14 22C13.4477 22 13 21.5523 13 21Z" fill="white"/>
<path d="M22.5 22C24.0913 22 25.6174 21.3679 26.7426 20.2426C27.8679 19.1174 28.5 17.5913 28.5 16C28.5 14.4087 27.8679 12.8826 26.7426 11.7574C25.6174 10.6321 24.0913 10 22.5 10L22.5 11.9945C23.5623 11.9945 24.5811 12.4165 25.3323 13.1677C26.0835 13.9189 26.5055 14.9377 26.5055 16C26.5055 17.0623 26.0835 18.0811 25.3323 18.8323C24.5811 19.5835 23.5623 20.0055 22.5 20.0055V22Z" fill="white"/>
</g>
<defs>
<clipPath id="clip0_8_130">
<rect width="40" height="40" fill="white"/>
</clipPath>
</defs>
</svg>