<svg width="40" height="40" viewBox="0 0 40 40" fill="none" xmlns="http://www.w3.org/2000/svg">
    <path fill-rule="evenodd" clip-rule="evenodd" d="M11.9467 40C10.8947 40 10.0419 39.1472 10.0419 38.0952L10.0419 1.90476C10.0419 0.852791 10.8947 0 11.9467 0C12.9987 0 13.8515 0.852791 13.8515 1.90476L13.8515 38.0952C13.8515 39.1472 12.9987 40 11.9467 40Z" fill="white"/>
    <path fill-rule="evenodd" clip-rule="evenodd" d="M5.28 30.4762C5.28 29.4243 6.13279 28.5715 7.18476 28.5715L23.3752 28.5715C24.4272 28.5715 25.28 29.4243 25.28 30.4762C25.28 31.5282 24.4272 32.381 23.3752 32.381L7.18476 32.381C6.13279 32.381 5.28 31.5282 5.28 30.4762Z" fill="white"/>
    <path fill-rule="evenodd" clip-rule="evenodd" d="M10.0419 1.90476C10.0419 0.852791 10.8947 0 11.9467 0L23.3753 0C24.4272 0 25.28 0.852791 25.28 1.90476C25.28 2.95673 24.4272 3.80952 23.3753 3.80952L11.9467 3.80952C10.8947 3.80952 10.0419 2.95673 10.0419 1.90476Z" fill="white"/>
    <path fill-rule="evenodd" clip-rule="evenodd" d="M5.28 20.9524C5.28 19.9004 6.13279 19.0476 7.18476 19.0476L23.3752 19.0476C24.4272 19.0476 25.28 19.9004 25.28 20.9524C25.28 22.0043 24.4272 22.8571 23.3752 22.8571L7.18476 22.8571C6.13279 22.8571 5.28 22.0043 5.28 20.9524Z" fill="white"/>
    <path d="M23.3752 22.8571C26.4063 22.8571 29.3132 21.6531 31.4565 19.5098C33.5997 17.3665 34.8038 14.4596 34.8038 11.4286C34.8038 8.39753 33.5997 5.49062 31.4565 3.34735C29.3132 1.20408 26.4063 4.57675e-07 23.3752 0L23.3752 3.79905C25.3987 3.79905 27.3393 4.60287 28.7701 6.03368C30.2009 7.4645 31.0048 9.4051 31.0048 11.4286C31.0048 13.452 30.2009 15.3926 28.7701 16.8235C27.3393 18.2543 25.3987 19.0581 23.3752 19.0581V22.8571Z" fill="white"/>
</svg>
