<svg width="30" height="30" viewBox="0 0 30 30" fill="none" xmlns="http://www.w3.org/2000/svg">
<g clip-path="url(#clip0_8_142)">
<circle cx="15" cy="15" r="13.75" stroke="white" stroke-width="2.5"/>
<path fill-rule="evenodd" clip-rule="evenodd" d="M12.375 23.25C11.9608 23.25 11.625 22.9142 11.625 22.5L11.625 8.25C11.625 7.83579 11.9608 7.5 12.375 7.5C12.7892 7.5 13.125 7.83579 13.125 8.25L13.125 22.5C13.125 22.9142 12.7892 23.25 12.375 23.25Z" fill="white"/>
<path fill-rule="evenodd" clip-rule="evenodd" d="M9.75 19.5C9.75 19.0858 10.0858 18.75 10.5 18.75H16.875C17.2892 18.75 17.625 19.0858 17.625 19.5C17.625 19.9142 17.2892 20.25 16.875 20.25H10.5C10.0858 20.25 9.75 19.9142 9.75 19.5Z" fill="white"/>
<path fill-rule="evenodd" clip-rule="evenodd" d="M11.625 8.25C11.625 7.83579 11.9608 7.5 12.375 7.5L16.875 7.5C17.2892 7.5 17.625 7.83579 17.625 8.25C17.625 8.66421 17.2892 9 16.875 9L12.375 9C11.9608 9 11.625 8.66421 11.625 8.25Z" fill="white"/>
<path fill-rule="evenodd" clip-rule="evenodd" d="M9.75 15.75C9.75 15.3358 10.0858 15 10.5 15L16.875 15C17.2892 15 17.625 15.3358 17.625 15.75C17.625 16.1642 17.2892 16.5 16.875 16.5H10.5C10.0858 16.5 9.75 16.1642 9.75 15.75Z" fill="white"/>
<path d="M16.875 16.5C18.0685 16.5 19.2131 16.0259 20.057 15.182C20.9009 14.3381 21.375 13.1935 21.375 12C21.375 10.8065 20.9009 9.66193 20.057 8.81802C19.2131 7.97411 18.0685 7.5 16.875 7.5L16.875 8.99587C17.6717 8.99587 18.4359 9.31238 18.9992 9.87576C19.5626 10.4391 19.8791 11.2033 19.8791 12C19.8791 12.7967 19.5626 13.5609 18.9992 14.1242C18.4359 14.6876 17.6717 15.0041 16.875 15.0041V16.5Z" fill="white"/>
</g>
<defs>
<clipPath id="clip0_8_142">
<rect width="30" height="30" fill="white"/>
</clipPath>
</defs>
</svg>