<svg width="30" height="30" viewBox="0 0 30 30" fill="none" xmlns="http://www.w3.org/2000/svg">
<g clip-path="url(#clip0_10_326)">
<path d="M12.6494 15.6742C12.2749 15.279 12.2812 14.6528 12.6636 14.2654L25.5661 1.19289C26.342 0.406745 27.6001 0.406744 28.376 1.19289L29.3951 2.22543C30.171 3.01158 30.171 4.28617 29.3951 5.07231L16.4919 18.1455C16.1098 18.5327 15.4923 18.5394 15.1021 18.1606L14.4749 17.5517L18.8402 13.1289L22.4779 9.44317L22.9885 8.92585C23.3093 8.60089 23.3093 8.07403 22.9885 7.74907V7.74907C22.6678 7.42411 22.1478 7.42411 21.8271 7.74907L20.9527 8.63496L17.6787 11.9521L13.3134 16.3749L12.6494 15.6742Z" fill="white"/>
<path d="M0.253624 29.1551C0.0571757 29.1208 -0.0164974 28.8782 0.125653 28.7364L12.0252 16.8613C12.1239 16.7628 12.2829 16.7637 12.3793 16.8632L14.143 18.6841C13.8904 18.8811 13.7488 18.9916 13.4962 19.1887C9.52352 27.9985 6.19062 30.1909 0.253624 29.1551Z" fill="white"/>
<path d="M23.5622 28.3183C23.5622 28.0422 23.7861 27.8183 24.0622 27.8183H27.7081C27.9843 27.8183 28.2081 28.0422 28.2081 28.3183V28.8873C28.2081 29.1635 27.9843 29.3873 27.7081 29.3873H24.0622C23.7861 29.3873 23.5622 29.1635 23.5622 28.8873V28.3183Z" fill="white"/>
<path d="M17.3677 28.3183C17.3677 28.0422 17.5916 27.8183 17.8677 27.8183H21.5136C21.7897 27.8183 22.0136 28.0422 22.0136 28.3183V28.8873C22.0136 29.1635 21.7897 29.3873 21.5136 29.3873H17.8677C17.5916 29.3873 17.3677 29.1635 17.3677 28.8873V28.3183Z" fill="white"/>
<path d="M11.1732 28.3183C11.1732 28.0422 11.397 27.8183 11.6732 27.8183H15.3191C15.5952 27.8183 15.8191 28.0422 15.8191 28.3183V28.8873C15.8191 29.1635 15.5952 29.3873 15.3191 29.3873H11.6732C11.397 29.3873 11.1732 29.1635 11.1732 28.8873V28.3183Z" fill="white"/>
<path d="M6.53284 29.393C7.40734 29.0669 8.07588 28.6028 8.8502 27.8183L9.1338 27.8203C9.40849 27.8223 9.63011 28.0456 9.63011 28.3203L9.63011 28.8929C9.63011 29.1691 9.40622 29.393 9.13006 29.393L6.53284 29.393Z" fill="white"/>
</g>
<defs>
<clipPath id="clip0_10_326">
<rect width="30" height="30" fill="white"/>
</clipPath>
</defs>
</svg>