<svg width="40" height="40" viewBox="0 0 40 40" fill="none" xmlns="http://www.w3.org/2000/svg">

        <path d="M16.5805 20.8027C16.206 20.4075 16.2123 19.7813 16.5947 19.3939L34.3317 1.42328C35.1076 0.637136 36.3656 0.637138 37.1415 1.42328L39.395 3.7065C40.171 4.49264 40.171 5.76723 39.395 6.55338L21.6574 24.5247C21.2753 24.9119 20.6578 24.9186 20.2676 24.5398L19.2118 23.5148L24.9844 17.6661L29.795 12.7922L30.5357 12.0418C30.9236 11.6487 30.9236 11.0114 30.5357 10.6183L30.4047 10.4856C30.0167 10.0926 29.3877 10.0926 28.9997 10.4856L27.778 11.7235L23.4485 16.11L17.6759 21.9587L16.5805 20.8027Z" fill="white"/>
        <path d="M0.258289 38.833C0.0620406 38.7976 -0.0130983 38.5546 0.129052 38.4127L16.0301 22.5444C16.1288 22.4459 16.2879 22.4467 16.3842 22.5462L18.7729 25.0124C18.4389 25.273 18.2516 25.4191 17.9176 25.6797C12.6314 37.4024 8.20178 40.2648 0.258289 38.833Z" fill="white"/>

</svg>
