<svg width="40" height="40" viewBox="0 0 40 40" fill="none" xmlns="http://www.w3.org/2000/svg">
<g clip-path="url(#clip0_10_345)">
<path d="M16.5805 20.8028C16.206 20.4075 16.2123 19.7814 16.5947 19.394L34.3317 1.42331C35.1076 0.637167 36.3656 0.637168 37.1415 1.42331L39.3951 3.70653C40.171 4.49267 40.171 5.76726 39.3951 6.55341L21.6574 24.5248C21.2753 24.9119 20.6578 24.9186 20.2676 24.5398L19.2118 23.5148L24.9845 17.6662L29.795 12.7923L30.5357 12.0418C30.9236 11.6487 30.9236 11.0114 30.5357 10.6184L30.4047 10.4857C30.0167 10.0926 29.3877 10.0926 28.9997 10.4857L27.778 11.7235L23.4485 16.11L17.6759 21.9587L16.5805 20.8028Z" fill="white"/>
<path d="M0.258297 38.8329C0.0620483 38.7975 -0.0130907 38.5545 0.129059 38.4127L16.0301 22.5443C16.1288 22.4458 16.2879 22.4467 16.3842 22.5462L18.7729 25.0124C18.4389 25.2729 18.2516 25.419 17.9176 25.6796C12.6314 37.4023 8.20178 40.2647 0.258297 38.8329Z" fill="white"/>
<path d="M31.2288 37.5913C31.2288 37.3152 31.4527 37.0913 31.7288 37.0913H36.8725C37.1487 37.0913 37.3725 37.3152 37.3725 37.5913V38.6662C37.3725 38.9423 37.1486 39.1662 36.8725 39.1662H31.7288C31.4527 39.1662 31.2288 38.9423 31.2288 38.6662V37.5913Z" fill="white"/>
<path d="M23.0373 37.5913C23.0373 37.3152 23.2611 37.0913 23.5373 37.0913H28.6809C28.9571 37.0913 29.1809 37.3152 29.1809 37.5913V38.6662C29.1809 38.9423 28.9571 39.1662 28.6809 39.1662H23.5373C23.2611 39.1662 23.0373 38.9423 23.0373 38.6662V37.5913Z" fill="white"/>
<path d="M14.8457 37.5913C14.8457 37.3152 15.0695 37.0913 15.3457 37.0913H20.4893C20.7655 37.0913 20.9893 37.3152 20.9893 37.5913V38.6662C20.9893 38.9423 20.7655 39.1662 20.4893 39.1662H15.3457C15.0695 39.1662 14.8457 38.9423 14.8457 38.6662V37.5913Z" fill="white"/>
<path d="M8.7094 39.1737C9.86583 38.7424 10.7499 38.1287 11.7738 37.0913L12.3089 37.0952C12.5836 37.0972 12.8052 37.3204 12.8052 37.5951L12.8052 38.6736C12.8052 38.9498 12.5813 39.1737 12.3051 39.1737L8.7094 39.1737Z" fill="white"/>
</g>
<defs>
<clipPath id="clip0_10_345">
<rect width="40" height="40" fill="white"/>
</clipPath>
</defs>
</svg>