<svg width="40" height="40" viewBox="0 0 40 40" fill="none" xmlns="http://www.w3.org/2000/svg">
    <path d="M18.3679 16.0805C18.7631 15.706 19.3893 15.7123 19.7767 16.0947L37.7473 33.8316C38.5335 34.6075 38.5335 35.8656 37.7473 36.6415L35.4641 38.895C34.678 39.6709 33.4034 39.6709 32.6172 38.895L14.6459 21.1574C14.2588 20.7752 14.2521 20.1578 14.6309 19.7676L15.6558 18.7118L21.5045 24.4844L26.3784 29.2949L27.1288 30.0356C27.5219 30.4236 28.1592 30.4236 28.5523 30.0356L28.685 29.9046C29.0781 29.5167 29.0781 28.8877 28.685 28.4997L27.4472 27.278L23.0606 22.9485L17.212 17.1759L18.3679 16.0805Z" fill="white"/>
    <path d="M0.337745 -0.241749C0.373119 -0.437997 0.616144 -0.513136 0.758001 -0.370986L16.6264 15.5301C16.7248 15.6288 16.724 15.7878 16.6245 15.8842L14.1583 18.2728C13.8977 17.9388 13.7516 17.7516 13.4911 17.4175C1.76831 12.1313 -1.09407 7.70174 0.337745 -0.241749Z" fill="white"/>
</svg>
