<svg class="interaction__svg" xmlns="http://www.w3.org/2000/svg"
    viewBox="0 0 32 25">
    <g><path d="M25.481,0.6L24.548,2c3.19,2.415,5.26,6.234,5.26,10.547c0,4.309-2.066,8.125-5.251,10.54l0.919,1.379 c3.649-2.711,6.024-7.04,6.024-11.935C31.5,7.639,29.127,3.311,25.481,0.6z M19.419,5.779l-0.756,1.134    c1.684,1.285,2.775,3.306,2.775,5.587s-1.091,4.303-2.775,5.587l0.756,1.134c2.056-1.526,3.394-3.964,3.394-6.721    S21.474,7.305,19.419,5.779z M22.235,3.254l-0.808,1.212c2.43,1.845,4.006,4.759,4.006,8.049c0,3.288-1.575,6.2-4.002,8.045    l0.808,1.212c2.827-2.105,4.667-5.462,4.667-9.258C26.906,8.718,25.065,5.359,22.235,3.254z M15.717,0.075    c-0.265-0.126-0.582-0.096-0.818,0.081L7.619,6.88H1.662c-0.428,0-0.774,0.347-0.774,0.775v9.685c0,0.428,0.346,0.775,0.774,0.775    h5.957l7.279,6.724c0.137,0.108,0.295,0.158,0.46,0.16h0.021c0.108-0.002,0.223-0.029,0.337-0.072    c0.265-0.133,0.435-0.406,0.435-0.702V0.777C16.152,0.474,15.982,0.208,15.717,0.075z M7.142,16.565H2.444V8.438h4.698V16.565z     M14.589,22.654l-5.884-5.697V8.039l5.884-5.697V22.654z"/></g>
</svg>