<svg class="contacts__svg" fill="white" xmlns="http://www.w3.org/2000/svg"
     width="15" height="15" viewBox="0 0 17 17">
    <path d="M8.383,13.361h1a0.842,0.842,0,0,0,.454-0.2,0.729,0.729,0,0,0,.137-0.437s-0.019-1.35.6-1.547,1.4,1.291,2.228,1.862a1.507,1.507,0,0,0,1.107.321l2.224,0s1.163-.088.612-1a7.437,7.437,0,0,0-1.654-1.913c-1.395-1.294-1.208-1.085.472-3.324,1.023-1.364,1.432-2.2,1.3-2.553a1,1,0,0,0-.869-0.281h-2.51a0.605,0.605,0,0,0-.323.064,0.706,0.706,0,0,0-.221.289,14.171,14.171,0,0,1-.925,1.972C10.9,8.507,10.455,8.608,10.272,8.49,9.848,8.216,9.954,7.389,9.954,6.8c0-1.835.278-2.6-.542-2.8a4.29,4.29,0,0,0-1.169-.116A5.4,5.4,0,0,0,6.165,4.1c-0.285.14-.5,0.45-0.371,0.468a1.125,1.125,0,0,1,.739.372,2.417,2.417,0,0,1,.248,1.133S6.929,8.233,6.437,8.5c-0.337.184-.8-0.192-1.795-1.91a15.517,15.517,0,0,1-.894-1.871,0.742,0.742,0,0,0-.206-0.279,1.035,1.035,0,0,0-.385-0.155H0.778a0.811,0.811,0,0,0-.488.165,0.519,0.519,0,0,0-.009.424s1.863,4.392,3.972,6.588A5.768,5.768,0,0,0,8.383,13.361Z"/>
</svg>